<?xml version="1.0" encoding="UTF-8" standalone="no"?>
<!-- Created with Inkscape (http://www.inkscape.org/) -->

<svg
   xmlns:dc="http://purl.org/dc/elements/1.1/"
   xmlns:cc="http://creativecommons.org/ns#"
   xmlns:rdf="http://www.w3.org/1999/02/22-rdf-syntax-ns#"
   xmlns:svg="http://www.w3.org/2000/svg"
   xmlns="http://www.w3.org/2000/svg"
   xmlns:sodipodi="http://sodipodi.sourceforge.net/DTD/sodipodi-0.dtd"
   xmlns:inkscape="http://www.inkscape.org/namespaces/inkscape"
   width="210mm"
   height="297mm"
   viewBox="0 0 210 297"
   version="1.1"
   id="svg8"
   inkscape:version="0.92.2 2405546, 2018-03-11"
   sodipodi:docname="logo.svg">
  <defs
     id="defs2">
    <inkscape:path-effect
       effect="spiro"
       id="path-effect3787"
       is_visible="true" />
    <inkscape:path-effect
       effect="bspline"
       id="path-effect3783"
       is_visible="true"
       weight="33.333333"
       steps="2"
       helper_size="0"
       apply_no_weight="true"
       apply_with_weight="true"
       only_selected="false" />
    <inkscape:path-effect
       effect="bspline"
       id="path-effect3779"
       is_visible="true"
       weight="33.333333"
       steps="2"
       helper_size="0"
       apply_no_weight="true"
       apply_with_weight="true"
       only_selected="false" />
    <inkscape:path-effect
       effect="bspline"
       id="path-effect3775"
       is_visible="true"
       weight="33.333333"
       steps="2"
       helper_size="0"
       apply_no_weight="true"
       apply_with_weight="true"
       only_selected="false" />
    <inkscape:perspective
       sodipodi:type="inkscape:persp3d"
       inkscape:vp_x="0 : 148.5 : 1"
       inkscape:vp_y="0 : 1000 : 0"
       inkscape:vp_z="210 : 148.5 : 1"
       inkscape:persp3d-origin="105 : 99 : 1"
       id="perspective3719" />
  </defs>
  <sodipodi:namedview
     id="base"
     pagecolor="#ffffff"
     bordercolor="#666666"
     borderopacity="1.0"
     inkscape:pageopacity="0.0"
     inkscape:pageshadow="2"
     inkscape:zoom="0.70710678"
     inkscape:cx="411.42857"
     inkscape:cy="605.13997"
     inkscape:document-units="mm"
     inkscape:current-layer="layer1"
     showgrid="false"
     inkscape:window-width="3840"
     inkscape:window-height="2136"
     inkscape:window-x="0"
     inkscape:window-y="24"
     inkscape:window-maximized="1" />
  <metadata
     id="metadata5">
    <rdf:RDF>
      <cc:Work
         rdf:about="">
        <dc:format>image/svg+xml</dc:format>
        <dc:type
           rdf:resource="http://purl.org/dc/dcmitype/StillImage" />
        <dc:title></dc:title>
      </cc:Work>
    </rdf:RDF>
  </metadata>
  <g
     inkscape:label="Layer 1"
     inkscape:groupmode="layer"
     id="layer1">
    <path
       style="fill:none;stroke:#000000;stroke-width:0.26458332px;stroke-linecap:butt;stroke-linejoin:miter;stroke-opacity:1"
       d="m 168.79828,78.061953 c -6.47331,9.37562 -17.31386,15.595784 -28.67479,16.453212 -11.36093,0.857429 -23.01226,-3.665234 -30.81941,-11.963084 -0.12092,-0.128523 -0.24123,-0.258142 -0.37418,-0.374177 1.9738,-0.474302 3.74785,-1.718507 4.8851,-3.400024 1.13726,-1.681518 1.63145,-3.782291 1.38595,-5.797377 -0.24551,-2.015087 -1.22417,-3.92904 -2.69826,-5.324712 -1.47409,-1.395671 -3.43046,-2.266572 -5.45205,-2.451066 -2.02159,-0.184494 -4.09596,0.314497 -5.82483,1.378391 -1.728864,1.063894 -3.105328,2.68404 -3.897542,4.553062 -0.792213,1.869022 -0.999919,3.977386 -0.61072,5.969714 0.389199,1.992328 1.370699,3.86185 2.772631,5.329989 1.401931,1.468139 3.217781,2.532362 5.177721,3.061017 1.95994,0.528655 4.05817,0.522992 6.02142,0.0068 1.96325,-0.516234 3.78793,-1.539527 5.26867,-2.928143 1.48074,-1.388617 2.61648,-3.138468 3.30441,-5.048336 1.37586,-3.819736 0.88296,-8.228774 -1.15038,-11.742879 -2.03333,-3.514105 -5.53554,-6.108196 -9.44448,-7.205258 -3.90882,-1.097168 -8.18137,-0.725853 -11.918668,0.860097 -3.737293,1.58595 -6.934742,4.352297 -9.200738,7.720955 -2.265995,3.368659 -3.614298,7.321576 -4.069984,11.355798 -0.455686,4.034223 -0.033,8.146877 1.048086,12.060169 2.16217,7.826583 6.881782,14.733391 12.360473,20.726251 5.478691,5.99286 11.750681,11.19632 17.693291,16.72948 6.53121,7.66966 12.6888,15.82962 16.56753,25.12672 3.87873,9.2971 5.32741,19.90708 2.29725,29.5143 -1.51508,4.80361 -4.14172,9.28223 -7.76335,12.7828 -3.62163,3.50056 -8.25014,5.99512 -13.21107,6.86653 -4.96092,0.87141 -10.23659,0.0772 -14.611955,-2.41811 -4.375367,-2.49525 -7.785138,-6.71255 -9.093048,-11.57666 -1.308834,-4.86528 -0.433647,-10.3192 2.512941,-14.40596 1.473295,-2.04338 3.435365,-3.73608 5.686168,-4.8674 2.250803,-1.13132 4.787384,-1.69653 7.304594,-1.59825 2.51721,0.0983 5.00912,0.86301 7.13241,2.21862 2.12328,1.35561 3.87016,3.30126 4.96359,5.57071 1.09343,2.26945 1.52636,4.85682 1.20222,7.35501 -0.32414,2.49818 -1.40816,4.89683 -3.09082,6.77157 -1.68266,1.87474 -3.95949,3.21392 -6.42195,3.74521 -2.46247,0.53129 -5.09826,0.24714 -7.37877,-0.82301 -2.28052,-1.07016 -4.189256,-2.92425 -5.299424,-5.18556 -1.110167,-2.26131 -1.408776,-4.91586 -0.800905,-7.36054 0.60787,-2.44469 2.12285,-4.65772 4.198277,-6.08552 2.075422,-1.42779 4.695062,-2.05159 7.187272,-1.68433 2.49221,0.36727 4.829,1.7282 6.35587,3.73186 1.52687,2.00366 2.21946,4.62971 1.85155,7.12182 13.34625,-8.86688 22.70896,-23.50721 25.15972,-39.34191 2.45077,-15.8347 -2.04806,-32.62041 -12.08938,-45.10703 C 117.19739,85.896038 101.76789,77.900403 85.776138,76.896568 69.784383,75.892732 53.476136,81.896123 41.952164,93.029046"
       id="path3785"
       inkscape:connector-curvature="0"
       inkscape:path-effect="#path-effect3787"
       inkscape:original-d="m 168.79828,78.061953 c 42.28177,-4.989295 -39.66254,2.993681 -59.4942,4.490128 -19.831666,1.496443 -0.24919,-0.249187 -0.37418,-0.374177 -0.12499,-0.124991 3.49259,67.102736 5.23848,100.653696 1.7459,33.55097 -48.143876,-59.8681 -72.216216,-89.802554" />
  </g>
</svg>
